<svg width="1200" height="720" viewBox="0 0 1200 720" fill="none" xmlns="http://www.w3.org/2000/svg">
<rect width="1200" height="720" rx="36" fill="url(#bg)"/>
<circle cx="1000" cy="120" r="180" fill="#86EFAC" fill-opacity=".18"/>
<circle cx="170" cy="620" r="210" fill="#DCFCE7" fill-opacity=".2"/>
<rect x="162" y="100" width="876" height="520" rx="30" fill="#F0FDF4" fill-opacity=".96"/>
<rect x="198" y="136" width="804" height="44" rx="22" fill="#DCFCE7"/>
<circle cx="234" cy="158" r="8" fill="#22C55E"/>
<circle cx="262" cy="158" r="8" fill="#4ADE80"/>
<circle cx="290" cy="158" r="8" fill="#BBF7D0"/>
<rect x="226" y="214" width="248" height="338" rx="28" fill="#166534"/>
<rect x="260" y="258" width="180" height="20" rx="10" fill="#86EFAC"/>
<rect x="260" y="304" width="114" height="114" rx="26" fill="#F0FDF4"/>
<path d="M317 356L343 381L388 336" stroke="#16A34A" stroke-width="22" stroke-linecap="round" stroke-linejoin="round"/>
<rect x="260" y="450" width="112" height="18" rx="9" fill="#4ADE80"/>
<rect x="260" y="482" width="144" height="16" rx="8" fill="#BBF7D0"/>
<rect x="512" y="220" width="454" height="136" rx="26" fill="#DCFCE7"/>
<text x="550" y="274" fill="#166534" font-family="Arial, sans-serif" font-size="38" font-weight="700">Habit Hero</text>
<text x="550" y="322" fill="#15803D" font-family="Arial, sans-serif" font-size="24">Build streaks, reminders and progress goals</text>
<rect x="512" y="388" width="212" height="164" rx="24" fill="#14532D"/>
<rect x="756" y="388" width="210" height="164" rx="24" fill="#22C55E"/>
<path d="M560 497C589 460 627 444 676 430" stroke="#86EFAC" stroke-width="12" stroke-linecap="round"/>
<circle cx="564" cy="498" r="10" fill="#F0FDF4"/>
<circle cx="616" cy="460" r="10" fill="#BBF7D0"/>
<circle cx="680" cy="430" r="10" fill="#4ADE80"/>
<path d="M804 506L836 468L872 486L916 430" stroke="#F0FDF4" stroke-width="12" stroke-linecap="round" stroke-linejoin="round"/>
<circle cx="804" cy="506" r="10" fill="#DCFCE7"/>
<circle cx="836" cy="468" r="10" fill="#DCFCE7"/>
<circle cx="872" cy="486" r="10" fill="#DCFCE7"/>
<circle cx="916" cy="430" r="10" fill="#DCFCE7"/>
<defs>
<linearGradient id="bg" x1="54" y1="54" x2="1124" y2="666" gradientUnits="userSpaceOnUse">
<stop stop-color="#14532D"/>
<stop offset=".54" stop-color="#15803D"/>
<stop offset="1" stop-color="#4ADE80"/>
</linearGradient>
</defs>
</svg>
