<svg xmlns="http://www.w3.org/2000/svg" width="1200" height="750" viewBox="0 0 1200 750" role="img" aria-label="Superstore Dashboard preview">
  <defs>
    <linearGradient id="bg-ssd" x1="0" x2="1" y1="0" y2="1">
      <stop offset="0%" stop-color="#0f766e"/>
      <stop offset="52%" stop-color="#34d399"/>
      <stop offset="100%" stop-color="#ecfccb"/>
    </linearGradient>
    <linearGradient id="panel-ssd" x1="0" x2="1" y1="0" y2="1">
      <stop offset="0%" stop-color="#effdf7"/>
      <stop offset="100%" stop-color="#d3f7e5"/>
    </linearGradient>
  </defs>
  <rect width="1200" height="750" fill="url(#bg-ssd)"/>
  <circle cx="1040" cy="620" r="200" fill="rgba(255,255,255,0.08)"/>
  <circle cx="170" cy="120" r="150" fill="rgba(255,255,255,0.1)"/>
  <rect x="110" y="105" width="980" height="540" rx="40" fill="url(#panel-ssd)" opacity="0.98"/>
  <rect x="160" y="150" width="880" height="70" rx="24" fill="#ffffff"/>
  <rect x="200" y="174" width="180" height="24" rx="12" fill="#0f766e"/>
  <rect x="760" y="170" width="100" height="30" rx="15" fill="#d1fae5"/>
  <rect x="880" y="170" width="120" height="30" rx="15" fill="#a7f3d0"/>
  <rect x="160" y="255" width="250" height="145" rx="26" fill="#ffffff"/>
  <rect x="435" y="255" width="250" height="145" rx="26" fill="#ffffff"/>
  <rect x="710" y="255" width="330" height="145" rx="26" fill="#ffffff"/>
  <text x="195" y="305" font-family="Arial, sans-serif" font-size="22" font-weight="700" fill="#0f5132">Sales</text>
  <text x="470" y="305" font-family="Arial, sans-serif" font-size="22" font-weight="700" fill="#0f5132">Profit</text>
  <text x="745" y="305" font-family="Arial, sans-serif" font-size="22" font-weight="700" fill="#0f5132">Growth</text>
  <text x="195" y="360" font-family="Arial, sans-serif" font-size="46" font-weight="700" fill="#111827">$142K</text>
  <text x="470" y="360" font-family="Arial, sans-serif" font-size="46" font-weight="700" fill="#111827">$36K</text>
  <text x="745" y="360" font-family="Arial, sans-serif" font-size="46" font-weight="700" fill="#111827">+18.4%</text>
  <rect x="160" y="435" width="440" height="160" rx="28" fill="#ffffff"/>
  <rect x="625" y="435" width="415" height="160" rx="28" fill="#ffffff"/>
  <path d="M210 545l75-58 70 34 90-92 105 68" fill="none" stroke="#10b981" stroke-width="14" stroke-linecap="round" stroke-linejoin="round"/>
  <rect x="700" y="485" width="52" height="70" rx="16" fill="#0f766e"/>
  <rect x="770" y="455" width="52" height="100" rx="16" fill="#14b8a6"/>
  <rect x="840" y="425" width="52" height="130" rx="16" fill="#34d399"/>
  <rect x="910" y="395" width="52" height="160" rx="16" fill="#86efac"/>
  <text x="160" y="685" font-family="Arial, sans-serif" font-size="46" font-weight="700" fill="#ffffff">Superstore Dashboard</text>
</svg>
