<svg width="1200" height="720" viewBox="0 0 1200 720" fill="none" xmlns="http://www.w3.org/2000/svg">
<rect width="1200" height="720" rx="36" fill="url(#bg)"/>
<circle cx="1036" cy="110" r="160" fill="#DCFCE7" fill-opacity=".18"/>
<circle cx="154" cy="584" r="180" fill="#BBF7D0" fill-opacity=".18"/>
<rect x="132" y="92" width="936" height="536" rx="34" fill="#F8FFFA" fill-opacity=".97"/>
<rect x="172" y="134" width="856" height="54" rx="18" fill="#DCFCE7"/>
<text x="208" y="169" fill="#166534" font-family="Arial, sans-serif" font-size="28" font-weight="700">Superstore Sales Dashboard</text>
<rect x="176" y="228" width="268" height="132" rx="24" fill="#166534"/>
<rect x="466" y="228" width="268" height="132" rx="24" fill="#22C55E"/>
<rect x="756" y="228" width="268" height="132" rx="24" fill="#DCFCE7"/>
<text x="206" y="280" fill="#BBF7D0" font-family="Arial, sans-serif" font-size="22">Revenue</text>
<text x="206" y="328" fill="#F0FDF4" font-family="Arial, sans-serif" font-size="42" font-weight="700">$128.4K</text>
<text x="496" y="280" fill="#F0FDF4" font-family="Arial, sans-serif" font-size="22">Profit</text>
<text x="496" y="328" fill="#F0FDF4" font-family="Arial, sans-serif" font-size="42" font-weight="700">$26.7K</text>
<text x="786" y="280" fill="#166534" font-family="Arial, sans-serif" font-size="22">Growth</text>
<text x="786" y="328" fill="#15803D" font-family="Arial, sans-serif" font-size="42" font-weight="700">+18.2%</text>
<rect x="176" y="394" width="398" height="190" rx="28" fill="#ECFDF5"/>
<rect x="610" y="394" width="414" height="190" rx="28" fill="#ECFDF5"/>
<path d="M226 544L282 498L340 522L404 438L470 470L526 420" stroke="#16A34A" stroke-width="12" stroke-linecap="round" stroke-linejoin="round"/>
<circle cx="226" cy="544" r="10" fill="#166534"/>
<circle cx="282" cy="498" r="10" fill="#22C55E"/>
<circle cx="340" cy="522" r="10" fill="#16A34A"/>
<circle cx="404" cy="438" r="10" fill="#22C55E"/>
<circle cx="470" cy="470" r="10" fill="#16A34A"/>
<circle cx="526" cy="420" r="10" fill="#166534"/>
<rect x="652" y="458" width="42" height="86" rx="14" fill="#14532D"/>
<rect x="718" y="430" width="42" height="114" rx="14" fill="#15803D"/>
<rect x="784" y="392" width="42" height="152" rx="14" fill="#22C55E"/>
<rect x="850" y="474" width="42" height="70" rx="14" fill="#86EFAC"/>
<rect x="916" y="442" width="42" height="102" rx="14" fill="#16A34A"/>
<defs>
<linearGradient id="bg" x1="56" y1="34" x2="1128" y2="682" gradientUnits="userSpaceOnUse">
<stop stop-color="#EAF7EC"/>
<stop offset=".58" stop-color="#DCFCE7"/>
<stop offset="1" stop-color="#BBF7D0"/>
</linearGradient>
</defs>
</svg>
