<svg width="1200" height="720" viewBox="0 0 1200 720" fill="none" xmlns="http://www.w3.org/2000/svg">
<rect width="1200" height="720" rx="36" fill="url(#bg)"/>
<circle cx="182" cy="126" r="140" fill="#BBF7D0" fill-opacity=".14"/>
<circle cx="1040" cy="612" r="230" fill="#DCFCE7" fill-opacity=".16"/>
<rect x="120" y="92" width="960" height="536" rx="34" fill="#07130C" fill-opacity=".88" stroke="#244231" stroke-width="3"/>
<rect x="160" y="134" width="880" height="54" rx="18" fill="#112018"/>
<circle cx="204" cy="161" r="8" fill="#22C55E"/>
<circle cx="234" cy="161" r="8" fill="#4ADE80"/>
<circle cx="264" cy="161" r="8" fill="#86EFAC"/>
<text x="320" y="170" fill="#9FD9B3" font-family="Arial, sans-serif" font-size="26">version-control-assistant</text>
<rect x="172" y="228" width="384" height="346" rx="28" fill="#112018"/>
<text x="204" y="280" fill="#4ADE80" font-family="Courier New, monospace" font-size="28">$ analyze repo status</text>
<text x="204" y="332" fill="#D1FAE5" font-family="Courier New, monospace" font-size="24">- 3 files changed on feature branch</text>
<text x="204" y="378" fill="#D1FAE5" font-family="Courier New, monospace" font-size="24">- 1 merge conflict detected</text>
<text x="204" y="424" fill="#D1FAE5" font-family="Courier New, monospace" font-size="24">- 2 suggested review commands</text>
<rect x="204" y="472" width="232" height="54" rx="14" fill="#166534"/>
<text x="236" y="506" fill="#F0FDF4" font-family="Arial, sans-serif" font-size="24" font-weight="700">Suggested Fixes</text>
<rect x="590" y="228" width="410" height="160" rx="28" fill="#DCFCE7"/>
<text x="628" y="286" fill="#166534" font-family="Arial, sans-serif" font-size="34" font-weight="700">AI Workflow Assistant</text>
<text x="628" y="334" fill="#15803D" font-family="Arial, sans-serif" font-size="22">GitHub context + command recommendations</text>
<rect x="590" y="420" width="186" height="154" rx="24" fill="#166534"/>
<rect x="814" y="420" width="186" height="154" rx="24" fill="#22C55E"/>
<path d="M638 486H726" stroke="#BBF7D0" stroke-width="12" stroke-linecap="round"/>
<path d="M638 522H702" stroke="#86EFAC" stroke-width="12" stroke-linecap="round"/>
<path d="M862 470L894 502L950 446" stroke="#F0FDF4" stroke-width="16" stroke-linecap="round" stroke-linejoin="round"/>
<circle cx="960" cy="186" r="16" fill="#4ADE80"/>
<circle cx="998" cy="186" r="10" fill="#86EFAC"/>
<circle cx="1030" cy="186" r="6" fill="#DCFCE7"/>
<defs>
<linearGradient id="bg" x1="88" y1="42" x2="1110" y2="692" gradientUnits="userSpaceOnUse">
<stop stop-color="#0B1B12"/>
<stop offset=".52" stop-color="#14532D"/>
<stop offset="1" stop-color="#15803D"/>
</linearGradient>
</defs>
</svg>
